Results
version=1
nRows=7
nColumns=39
inDegrees=yes
endheader
time	/jointset/UpperExo_to_pelvis/hip_exo_r/value	/jointset/UpperExo_to_pelvis/hip_exo_r/speed	/jointset/UpperExo_to_pelvis/exo_tx/value	/jointset/UpperExo_to_pelvis/exo_tx/speed	/jointset/LowExo_to_UpperExo/LowExo_to_UpperExo_rz/value	/jointset/LowExo_to_UpperExo/LowExo_to_UpperExo_rz/speed	/jointset/ground_pelvis/pelvis_tilt/value	/jointset/ground_pelvis/pelvis_tilt/speed	/jointset/ground_pelvis/pelvis_tx/value	/jointset/ground_pelvis/pelvis_tx/speed	/jointset/ground_pelvis/pelvis_ty/value	/jointset/ground_pelvis/pelvis_ty/speed	/jointset/hip_r/hip_flexion_r/value	/jointset/hip_r/hip_flexion_r/speed	/jointset/knee_r/knee_angle_r/value	/jointset/knee_r/knee_angle_r/speed	/jointset/tib_pat_r/knee_angle_pat_r/value	/jointset/tib_pat_r/knee_angle_pat_r/speed	/jointset/ankle_r/ankle_angle_r/value	/jointset/ankle_r/ankle_angle_r/speed	/forceset/bifemlh_r/activation	/forceset/bifemlh_r/fiber_length	/forceset/bifemsh_r/activation	/forceset/bifemsh_r/fiber_length	/forceset/glut_max2_r/activation	/forceset/glut_max2_r/fiber_length	/forceset/psoas_r/activation	/forceset/psoas_r/fiber_length	/forceset/rect_fem_r/activation	/forceset/rect_fem_r/fiber_length	/forceset/vas_int_r/activation	/forceset/vas_int_r/fiber_length	/forceset/med_gas_r/activation	/forceset/med_gas_r/fiber_length	/forceset/soleus_r/activation	/forceset/soleus_r/fiber_length	/forceset/tib_ant_r/activation	/forceset/tib_ant_r/fiber_length
      1.13741628	     93.22299922	     -0.00000000	      0.01999047	     -0.00000000	    -57.06756305	    391.97773748	      1.14702713	     -0.00000000	      0.05768549	     -0.00000000	      1.06004667	     -0.00000000	     90.00020523	     -0.00000000	    -44.50650626	     -3.98722258	     -0.77678507	     -0.06959016	   -136.38890183	    237.59500914	     -0.12100022	      0.17167058	     -0.12100022	      0.17516850	     -0.12100022	      0.15698474	     -0.12100022	      0.04239262	     -0.12100022	      0.08017855	     -0.12100022	      0.11722849	     -0.12100022	      0.03404074	     -0.12100022	      0.03963003	     -0.12100022	      0.12319327
      1.13779775	     93.22299922	     -0.00000000	      0.01999047	     -0.00000000	    -56.91797743	    392.24560349	      1.14702713	     -0.00000000	      0.05768549	     -0.00000000	      1.06004667	     -0.00000000	     90.00020523	     -0.00000000	    -44.50809669	     -4.33964116	     -0.77681283	     -0.07574103	   -136.29835436	    237.11099777	     -0.12104933	      0.17167051	     -0.12104933	      0.17516885	     -0.12104933	      0.15698474	     -0.12104933	      0.04239262	     -0.12104933	      0.08017386	     -0.12104933	      0.11722702	     -0.12104933	      0.03401277	     -0.12104933	      0.03962050	     -0.12104933	      0.12321942
      1.13833051	     93.22299922	     -0.00000000	      0.01999047	     -0.00000000	    -56.70898361	    392.25943773	      1.14702713	     -0.00000000	      0.05768549	     -0.00000000	      1.06004667	     -0.00000000	     90.00020523	     -0.00000000	    -44.51051502	     -4.71680106	     -0.77685504	     -0.08232371	   -136.17225808	    236.22614775	     -0.12111792	      0.17167003	     -0.12111792	      0.17516911	     -0.12111792	      0.15698474	     -0.12111792	      0.04239262	     -0.12111792	      0.08016783	     -0.12111792	      0.11722537	     -0.12111792	      0.03397396	     -0.12111792	      0.03960907	     -0.12111792	      0.12325578
      1.13873498	     93.22299922	     -0.00000000	      0.01999047	     -0.00000000	    -56.55037202	    391.98933212	      1.14702713	     -0.00000000	      0.05768549	     -0.00000000	      1.06004667	     -0.00000000	     90.00020523	     -0.00000000	    -44.51246508	     -4.91249962	     -0.77688907	     -0.08573929	   -136.07687884	    235.36651573	     -0.12117000	      0.17166943	     -0.12117000	      0.17516913	     -0.12117000	      0.15698474	     -0.12117000	      0.04239262	     -0.12117000	      0.08016363	     -0.12117000	      0.11722441	     -0.12117000	      0.03394474	     -0.12117000	      0.03959827	     -0.12117000	      0.12328323
      1.13913945	     93.22299922	     -0.00000000	      0.01999047	     -0.00000000	    -56.39191866	    391.47706849	      1.14702713	     -0.00000000	      0.05768549	     -0.00000000	      1.06004667	     -0.00000000	     90.00020523	     -0.00000000	    -44.51447869	     -5.03150144	     -0.77692422	     -0.08781627	   -135.98187542	    234.37805148	     -0.12122208	      0.17166868	     -0.12122208	      0.17516893	     -0.12122208	      0.15698474	     -0.12122208	      0.04239262	     -0.12122208	      0.08015974	     -0.12122208	      0.11722369	     -0.12122208	      0.03391574	     -0.12122208	      0.03959071	     -0.12122208	      0.12331053
      1.13954392	     93.22299922	     -0.00000000	      0.01999047	     -0.00000000	    -56.23372143	    390.72289392	      1.14702713	     -0.00000000	      0.05768549	     -0.00000000	      1.06004667	     -0.00000000	     90.00020523	     -0.00000000	    -44.51652466	     -5.07212042	     -0.77695993	     -0.08852520	   -135.88730413	    233.22011002	     -0.12127415	      0.17166780	     -0.12127415	      0.17516853	     -0.12127415	      0.15698474	     -0.12127415	      0.04239262	     -0.12127415	      0.08015614	     -0.12127415	      0.11722319	     -0.12127415	      0.03388700	     -0.12127415	      0.03958053	     -0.12127415	      0.12333767
      1.13994840	     93.22299922	     -0.00000000	      0.01999047	     -0.00000000	    -56.07587810	    389.72724889	      1.14702713	     -0.00000000	      0.05768549	     -0.00000000	      1.06004667	     -0.00000000	     90.00020523	     -0.00000000	    -44.51857148	     -5.03618317	     -0.77699565	     -0.08789798	   -135.79322996	    231.92985478	     -0.12132623	      0.17166684	     -0.12132623	      0.17516795	     -0.12132623	      0.15698474	     -0.12132623	      0.04239262	     -0.12132623	      0.08015281	     -0.12132623	      0.11722287	     -0.12132623	      0.03385853	     -0.12132623	      0.03957313	     -0.12132623	      0.12336462
